<svg xmlns="http://www.w3.org/2000/svg" viewBox="0 0 128 128">
<path fill="#336791" d="M93.809 92.112c.785-6.533.55-7.492 5.416-6.433l1.235.108c3.742.17 8.637-.602 11.513-1.938 6.191-2.873 9.861-7.668 3.758-6.409-13.924 2.873-14.881-1.842-14.881-1.842 14.703-21.815 20.849-49.508 15.543-56.287-14.47-18.489-39.517-9.746-39.936-9.52l-.134.025c-2.751-.571-5.83-.912-9.289-.968-6.301-.104-11.082 1.652-14.709 4.402 0 0-44.683-18.409-42.604 23.151.442 8.841 12.672 66.898 27.26 49.362 5.332-6.412 10.484-11.834 10.484-11.834 2.558 1.699 5.622 2.567 8.834 2.255l.249-.212c-.078.796-.044 1.575.099 2.497-3.757 4.199-2.653 4.936-10.166 6.482-7.602 1.566-3.136 4.355-.221 5.084 3.535.884 11.712 2.136 17.238-5.598l-.22.882c1.474 1.18 1.375 8.477 1.583 13.69.209 5.214.558 10.079 1.621 12.948 1.063 2.868 2.317 10.256 12.191 8.14 8.252-1.764 14.561-4.309 15.136-27.985"/>
<path fill="#fff" d="M75.458 125.256c-4.367 0-7.211-1.689-8.938-3.32-2.607-2.46-3.641-5.629-4.259-7.522l-.267-.79c-1.244-3.358-1.666-8.193-1.916-14.419-.038-.935-.064-1.898-.093-2.919-.021-.747-.047-1.684-.085-2.664a18.8 18.8 0 01-4.962 1.568c-3.079.526-6.389.356-9.84-.507-2.435-.609-3.903-1.558-4.612-2.692-.623-.989-.686-2.102-.18-3.246.355-.803 1.065-1.51 2.022-2.003-1.687-1.719-2.397-3.967-2.145-6.79.145-1.625.797-3.313 1.945-5.042 1.064-1.604 2.799-3.5 5.411-5.902 1.483-1.365 2.045-1.881 2.098-1.932.517-.502.853-.957 1.039-1.4.62-1.496-.19-2.878-.77-4.033l-.582-1.154a8.38 8.38 0 01-.51-1.378c-.76-2.736.16-5.285 2.684-7.44 1.14-.973 2.512-1.786 4.166-2.476 1.391-.579 2.988-1.051 4.587-1.389-.115-1.796-.522-3.385-1.238-4.962-1.247-2.752-3.33-5.208-6.345-7.531-2.686-2.079-6.199-3.88-10.693-5.473-2.857-1.018-5.566-1.757-8.299-2.278l.108-.041c-.202-.06-.395-.118-.597-.176-1.561-.436-3.035-.849-4.491-1.256-1.674-.469-3.209-.95-4.915-1.49l-.844-.276c-2.21-.724-4.377-1.432-6.58-2.084l-2.325-.675a47.99 47.99 0 00-1.889-.494c-1.724-.431-3.466-.805-5.198-1.02-3.948-.489-7.37-.479-10.49.03-3.104.507-5.591 1.517-7.587 3.088-3.631 2.855-4.772 7.454-3.402 13.673l.03.142.137.134c1.535 1.514 2.962 3.183 4.249 4.979 1.786 2.487 3.321 5.232 4.568 8.174.393.933.685 1.803.884 2.602.166.644.248 1.23.288 1.747.085 1.16-.022 1.868-.318 2.16-.56.548-1.791.548-3.631.032-1.212-.34-2.496-.791-3.826-1.344l-.578-.243c-2.441-1.032-4.312-1.849-5.931-1.983-1.812-.15-3.294.343-4.688 1.557-1.335 1.167-2.493 2.748-3.451 4.704-1.491 3.052-2.574 6.924-3.247 11.531-.435 2.96-.636 5.587-.688 8.038-.028 1.396-.026 2.725.006 3.967.033 1.375.087 2.659.16 3.821.074 1.139.157 2.196.256 3.235l.089.966c.566 6.36 1.334 10.845 2.502 14.575 1.82 5.805 4.65 9.801 8.416 11.874 2.436 1.342 5.338 1.673 8.95 1.019 1.96-.354 4.07-.934 6.295-1.728 1.532-.546 2.849-1.084 3.956-1.621 1.112-.537 2.439-1.26 3.991-2.176l.546-.331c1.337-.811 2.653-1.618 3.902-2.42.482-.309.91-.579 1.328-.847l.894-.591a13.33 13.33 0 00.706-.501c.35-.257.678-.51.988-.763.796-.646 1.412-1.295 1.821-1.928.351-.544.532-1.067.554-1.6.027-.655-.235-1.305-.792-1.95-.63-.727-1.383-1.243-2.244-1.533-.869-.292-1.898-.36-3.061-.204-1.258.169-2.329.497-3.346 1.024-.9.468-1.814 1.133-2.88 2.098-.334.301-.647.597-.947.894l-.737.737c-.464.473-.847.851-1.196 1.179-1.198 1.137-2.204 1.798-3.053 2.019-.478.124-.926.144-1.363.06-.451-.087-.878-.28-1.279-.576-.878-.646-1.477-1.776-1.778-3.353-.152-.799-.237-1.678-.259-2.637-.013-.531-.004-1.098.026-1.699.034-.685.099-1.414.201-2.199.09-.702.145-1.303.173-1.818.032-.641.026-1.178-.018-1.699-.054-.636-.17-1.198-.346-1.678-.327-.891-.87-1.639-1.616-2.23-.76-.599-1.595-1.02-2.488-1.255-.882-.232-1.842-.29-2.855-.177-1.258.14-2.35.504-3.32 1.103-.97.599-1.825 1.415-2.554 2.429-.729 1.017-1.321 2.227-1.764 3.604-.442 1.377-.737 2.893-.88 4.512-.099 1.1-.123 2.151-.075 3.13.048.976.158 1.879.33 2.696.172.814.406 1.544.701 2.178.294.631.644 1.161 1.041 1.583.803.848 1.787 1.255 2.994 1.235 1.209-.02 2.486-.51 3.85-1.471.716-.507 1.41-1.161 2.074-1.942.664-.782 1.316-1.72 1.95-2.806.633-1.086 1.248-2.33 1.833-3.723.585-1.393 1.144-2.95 1.672-4.656.135-.433.256-.835.368-1.207l.416-1.377c.33-1.111.649-2.167.99-3.169.693-2.031 1.468-3.834 2.309-5.366.841-1.533 1.748-2.84 2.704-3.892.957-1.05 1.995-1.86 3.097-2.418 1.099-.559 2.29-.843 3.566-.843 1.25 0 2.355.241 3.299.72.944.48 1.742 1.143 2.386 1.981.644.84 1.128 1.826 1.447 2.953.319 1.13.479 2.35.479 3.652 0 2.201-.428 4.669-1.278 7.357-.85 2.689-2.074 5.615-3.657 8.742-.461.908-.949 1.778-1.458 2.61-.507.83-1.036 1.624-1.58 2.374-.543.751-1.097 1.456-1.657 2.116-.56.661-1.113 1.264-1.657 1.81-.543.545-1.072 1.029-1.58 1.448-.507.42-.982.777-1.419 1.071-.439.295-.834.523-1.185.686-.352.162-.652.243-.9.243-.248 0-.503-.071-.768-.213-.264-.142-.492-.361-.683-.656-.19-.295-.285-.685-.285-1.166 0-.481.095-.994.285-1.538.19-.546.48-1.173.873-1.883.392-.709.873-1.538 1.444-2.487.57-.948 1.217-2.07 1.939-3.368.722-1.296 1.5-2.77 2.335-4.419.834-1.649 1.723-3.489 2.668-5.518.944-2.031 1.923-4.275 2.932-6.729 1.01-2.453 2.068-5.118 3.175-7.995.488-1.269.964-2.483 1.425-3.643.461-1.159.9-2.259 1.315-3.299.415-1.039.8-2.012 1.153-2.917.352-.905.667-1.738.944-2.499.275-.76.512-1.443.708-2.048.197-.604.345-1.119.446-1.538.1-.421.15-.726.15-.918 0-.19-.05-.365-.15-.523-.099-.158-.247-.296-.445-.414-.198-.117-.445-.213-.742-.285-.296-.071-.634-.107-1.013-.107-.38 0-.851.036-1.414.107-.564.072-1.185.19-1.864.356-.679.166-1.407.39-2.183.671-.776.283-1.581.629-2.412 1.038-.83.41-1.678.905-2.544 1.485-.866.582-1.732 1.27-2.599 2.063-.866.795-1.723 1.708-2.569 2.739-.847 1.032-1.657 2.211-2.429 3.536-.773 1.325-1.5 2.796-2.183 4.419-.684 1.622-1.301 3.39-1.853 5.303-.552 1.912-1.03 3.969-1.433 6.171-.404 2.201-.719 4.547-.944 7.04-.226 2.491-.339 5.127-.339 7.903 0 2.777.113 5.413.339 7.904.225 2.492.54 4.838.944 7.039.403 2.202.881 4.259 1.433 6.171.552 1.913 1.169 3.682 1.853 5.304.683 1.622 1.41 3.094 2.183 4.419.772 1.325 1.582 2.503 2.429 3.535.846 1.032 1.703 1.945 2.569 2.739.866.795 1.732 1.482 2.599 2.063.866.582 1.714 1.077 2.544 1.486.83.409 1.636.755 2.412 1.037.776.281 1.504.506 2.183.671.679.166 1.3.285 1.864.356.563.071 1.034.107 1.414.107.379 0 .717-.036 1.013-.107.297-.071.544-.167.742-.285.198-.119.346-.257.445-.414.1-.158.15-.333.15-.523 0-.192-.05-.497-.15-.918-.101-.419-.249-.934-.446-1.538-.196-.605-.433-1.288-.708-2.048-.277-.761-.592-1.594-.944-2.499-.353-.905-.738-1.878-1.153-2.917-.415-1.04-.854-2.14-1.315-3.299-.461-1.16-.937-2.374-1.425-3.643-1.107-2.877-2.165-5.542-3.175-7.995-1.009-2.454-1.988-4.698-2.932-6.729-.945-2.029-1.834-3.869-2.668-5.518-.835-1.649-1.613-3.123-2.335-4.419-.722-1.298-1.369-2.42-1.939-3.368-.571-.949-1.052-1.778-1.444-2.487-.393-.71-.683-1.337-.873-1.883-.19-.544-.285-1.057-.285-1.538 0-.481.095-.871.285-1.166.191-.295.419-.514.683-.656.265-.142.52-.213.768-.213.248 0 .548.081.9.243.351.163.746.391 1.185.686.437.294.912.651 1.419 1.071.508.419 1.037.903 1.58 1.448.544.546 1.097 1.149 1.657 1.81.56.66 1.114 1.365 1.657 2.116.544.75 1.073 1.544 1.58 2.374.509.832.997 1.702 1.458 2.61 1.583 3.127 2.807 6.053 3.657 8.742.85 2.688 1.278 5.156 1.278 7.357 0 1.302-.16 2.522-.479 3.652-.319 1.127-.803 2.113-1.447 2.953-.644.838-1.442 1.501-2.386 1.981-.944.479-2.049.72-3.299.72-1.276 0-2.467-.284-3.566-.843-1.102-.558-2.14-1.368-3.097-2.418-.956-1.052-1.863-2.359-2.704-3.892-.841-1.532-1.616-3.335-2.309-5.366-.341-1.002-.66-2.058-.99-3.169l-.416-1.377c-.112-.372-.233-.774-.368-1.207-.528-1.706-1.087-3.263-1.672-4.656-.585-1.393-1.2-2.637-1.833-3.723-.634-1.086-1.286-2.024-1.95-2.806-.664-.781-1.358-1.435-2.074-1.942-1.364-.961-2.641-1.451-3.85-1.471-1.207-.02-2.191.387-2.994 1.235-.397.422-.747.952-1.041 1.583-.295.634-.529 1.364-.701 2.178-.172.817-.282 1.72-.33 2.696-.048.979-.024 2.03.075 3.13.143 1.619.438 3.135.88 4.512.443 1.377 1.035 2.587 1.764 3.604.729 1.014 1.584 1.83 2.554 2.429.97.599 2.062.963 3.32 1.103 1.013.113 1.973.055 2.855-.177.893-.235 1.728-.656 2.488-1.255.746-.591 1.289-1.339 1.616-2.23.176-.48.292-1.042.346-1.678.044-.521.05-1.058.018-1.699-.028-.515-.083-1.116-.173-1.818-.102-.785-.167-1.514-.201-2.199-.03-.601-.039-1.168-.026-1.699.022-.959.107-1.838.259-2.637.301-1.577.9-2.707 1.778-3.353.401-.296.828-.489 1.279-.576.437-.084.885-.064 1.363.06.849.221 1.855.882 3.053 2.019.349.328.732.706 1.196 1.179l.737.737c.3.297.613.593.947.894 1.066.965 1.98 1.63 2.88 2.098 1.017.527 2.088.855 3.346 1.024 1.163.156 2.192.088 3.061-.204.861-.29 1.614-.806 2.244-1.533.557-.645.819-1.295.792-1.95-.022-.533-.203-1.056-.554-1.6-.409-.633-1.025-1.282-1.821-1.928-.31-.253-.638-.506-.988-.763a13.33 13.33 0 00-.706-.501l-.894-.591c-.418-.268-.846-.538-1.328-.847-1.249-.802-2.565-1.609-3.902-2.42l-.546-.331c-1.552-.916-2.879-1.639-3.991-2.176-1.107-.537-2.424-1.075-3.956-1.621-2.225-.794-4.335-1.374-6.295-1.728-3.612-.654-6.514-.323-8.95 1.019-3.766 2.073-6.596 6.069-8.416 11.874-1.168 3.73-1.936 8.215-2.502 14.575l-.089.966c-.099 1.039-.182 2.096-.256 3.235-.073 1.162-.127 2.446-.16 3.821-.032 1.242-.034 2.571-.006 3.967.052 2.451.253 5.078.688 8.038.673 4.607 1.756 8.479 3.247 11.531.958 1.956 2.116 3.537 3.451 4.704 1.394 1.214 2.876 1.707 4.688 1.557 1.619-.134 3.49-.951 5.931-1.983l.578-.243c1.33-.553 2.614-1.004 3.826-1.344 1.84-.516 3.071-.516 3.631.032.296.292.403 1 .318 2.16-.04.517-.122 1.103-.288 1.747-.199.799-.491 1.669-.884 2.602-1.247 2.942-2.782 5.687-4.568 8.174-1.287 1.796-2.714 3.465-4.249 4.979l-.137.134-.03.142c-1.37 6.219-.229 10.818 3.402 13.673 1.996 1.571 4.483 2.581 7.587 3.088 3.12.509 6.542.519 10.49.03 1.732-.215 3.474-.589 5.198-1.02.659-.165 1.293-.339 1.889-.494l2.325-.675c2.203-.652 4.37-1.36 6.58-2.084l.844-.276c1.706-.54 3.241-1.021 4.915-1.49 1.456-.407 2.93-.82 4.491-1.256.202-.058.395-.116.597-.176l-.108-.041c2.733-.521 5.442-1.26 8.299-2.278 4.494-1.593 8.007-3.394 10.693-5.473 3.015-2.323 5.098-4.779 6.345-7.531.716-1.577 1.123-3.166 1.238-4.962-1.599-.338-3.196-.81-4.587-1.389-1.654-.69-3.026-1.503-4.166-2.476-2.524-2.155-3.444-4.704-2.684-7.44.135-.486.305-.945.51-1.378l.582-1.154c.58-1.155 1.39-2.537.77-4.033-.186-.443-.522-.898-1.039-1.4-.053-.051-.615-.567-2.098-1.932-2.612-2.402-4.347-4.298-5.411-5.902-1.148-1.729-1.8-3.417-1.945-5.042-.252-2.823.458-5.071 2.145-6.79-.957-.493-1.667-1.2-2.022-2.003-.506-1.144-.443-2.257.18-3.246.709-1.134 2.177-2.083 4.612-2.692 3.451-.863 6.761-1.033 9.84-.507 1.8.307 3.42.833 4.962 1.568.038-.98.064-1.917.085-2.664.029-1.021.055-1.984.093-2.919.25-6.226.672-11.061 1.916-14.419l.267-.79c.618-1.893 1.652-5.062 4.259-7.522 1.727-1.631 4.571-3.32 8.938-3.32"/>
</svg>