<svg xmlns="http://www.w3.org/2000/svg" viewBox="0 0 110.4 109.8">
<defs>
<linearGradient id="a" x1="89.9" x2="147.1" y1="111.6" y2="168.7" gradientUnits="userSpaceOnUse" gradientTransform="matrix(.56 0 0 .57 -14.2 -39.9)">
<stop offset="0" stop-color="#5a9fd4"/>
<stop offset="1" stop-color="#306998"/>
</linearGradient>
<linearGradient id="b" x1="139.5" x2="111.7" y1="147.1" y2="176.4" gradientUnits="userSpaceOnUse" gradientTransform="matrix(.56 0 0 .57 -14.2 -39.9)">
<stop offset="0" stop-color="#ffd43b"/>
<stop offset="1" stop-color="#ffe873"/>
</linearGradient>
</defs>
<path fill="url(#a)" d="M54.9.1c-4.6 0-9 .4-12.8 1.1-11.3 2-13.4 6.2-13.4 14v10.3h26.8v3.4H18.7c-7.9 0-14.8 4.7-16.9 13.7-2.5 10.3-2.6 16.7 0 27.4 1.9 8 6.5 13.7 14.4 13.7h9.3V72.4c0-8.7 7.5-16.3 16.9-16.3h26.8c7.5 0 13.4-6.2 13.4-13.7V15.2c0-7.3-6.2-12.8-13.4-14-4.6-.8-9.3-1.1-13.9-1.1zm-14.5 8.2c2.8 0 5 2.3 5 5.1s-2.3 5.1-5 5.1c-2.8 0-5-2.3-5-5.1s2.2-5.1 5-5.1z"/>
<path fill="url(#b)" d="M85.6 28.9v11.2c0 8.7-7.4 16-16.9 16H41.9c-7.4 0-13.4 6.3-13.4 13.7v25.7c0 7.3 6.3 11.6 13.4 13.7 8.5 2.5 16.6 2.9 26.8 0 6.8-2 13.4-5.9 13.4-13.7V86.1H55.3v-3.4h40.2c7.9 0 10.8-5.5 13.4-13.7 2.7-8.5 2.6-16.6 0-27.4-1.9-7.8-5.4-13.7-13.4-13.7h-10zm-15.1 60.8c2.8 0 5 2.3 5 5.1s-2.3 5.1-5 5.1c-2.8 0-5-2.3-5-5.1s2.3-5.1 5-5.1z"/>
</svg>